# Blender v3.2.0 OBJ File: ''
# www.blender.org
mtllib WallTestobj.mtl
o Cube_Cube.018
v 0.714514 -1.000000 4.452106
v 0.714514 1.000000 4.452106
v -0.691325 -1.000000 3.029566
v -0.691325 1.000000 3.029566
v 2.137053 -1.000000 3.046267
v 2.137053 1.000000 3.046267
v 0.731215 -1.000000 1.623728
v 0.731215 1.000000 1.623728
vt 0.625000 0.000000
vt 0.375000 0.250000
vt 0.375000 0.000000
vt 0.625000 0.250000
vt 0.375000 0.500000
vt 0.625000 0.500000
vt 0.375000 0.750000
vt 0.625000 0.750000
vt 0.375000 1.000000
vt 0.125000 0.750000
vt 0.125000 0.500000
vt 0.875000 0.500000
vt 0.625000 1.000000
vt 0.875000 0.750000
vn -0.7113 0.0000 0.7029
vn -0.7029 0.0000 -0.7113
vn 0.7113 0.0000 -0.7029
vn 0.7029 0.0000 0.7113
vn 0.0000 -1.0000 -0.0000
vn 0.0000 1.0000 -0.0000
usemtl None
s off
f 2/1/1 3/2/1 1/3/1
f 4/4/2 7/5/2 3/2/2
f 8/6/3 5/7/3 7/5/3
f 6/8/4 1/9/4 5/7/4
f 7/5/5 1/10/5 3/11/5
f 4/12/6 6/8/6 8/6/6
f 2/1/1 4/4/1 3/2/1
f 4/4/2 8/6/2 7/5/2
f 8/6/3 6/8/3 5/7/3
f 6/8/4 2/13/4 1/9/4
f 7/5/5 5/7/5 1/10/5
f 4/12/6 2/14/6 6/8/6
o Cube.001_Cube.019
v -5.802154 -1.000000 3.009774
v -5.802154 1.000000 3.009774
v -5.802154 -1.000000 1.009774
v -5.802154 1.000000 1.009774
v -3.802154 -1.000000 3.009774
v -3.802154 1.000000 3.009774
v -3.802154 -1.000000 1.009774
v -3.802154 1.000000 1.009774
vt 0.625000 0.000000
vt 0.375000 0.250000
vt 0.375000 0.000000
vt 0.625000 0.250000
vt 0.375000 0.500000
vt 0.625000 0.500000
vt 0.375000 0.750000
vt 0.625000 0.750000
vt 0.375000 1.000000
vt 0.125000 0.750000
vt 0.125000 0.500000
vt 0.875000 0.500000
vt 0.625000 1.000000
vt 0.875000 0.750000
vn -1.0000 0.0000 0.0000
vn 0.0000 0.0000 -1.0000
vn 1.0000 0.0000 0.0000
vn 0.0000 0.0000 1.0000
vn 0.0000 -1.0000 0.0000
vn 0.0000 1.0000 0.0000
usemtl None
s off
f 10/15/7 11/16/7 9/17/7
f 12/18/8 15/19/8 11/16/8
f 16/20/9 13/21/9 15/19/9
f 14/22/10 9/23/10 13/21/10
f 15/19/11 9/24/11 11/25/11
f 12/26/12 14/22/12 16/20/12
f 10/15/7 12/18/7 11/16/7
f 12/18/8 16/20/8 15/19/8
f 16/20/9 14/22/9 13/21/9
f 14/22/10 10/27/10 9/23/10
f 15/19/11 13/21/11 9/24/11
f 12/26/12 10/28/12 14/22/12
o Cube.002_Cube.020
v -4.609305 -1.040497 -1.002148
v -4.652727 0.959003 -1.012836
v -4.658976 -1.041263 -0.943758
v -4.702397 0.958237 -0.954445
v -1.477384 -0.958237 1.663136
v -1.520806 1.041263 1.652449
v -1.527054 -0.959003 1.721526
v -1.570476 1.040497 1.710839
vt 0.625000 0.000000
vt 0.375000 0.000000
vt 0.375000 0.250000
vt 0.625000 0.250000
vt 0.375000 0.500000
vt 0.625000 0.500000
vt 0.375000 0.750000
vt 0.625000 0.750000
vt 0.375000 1.000000
vt 0.125000 0.500000
vt 0.125000 0.750000
vt 0.875000 0.500000
vt 0.625000 1.000000
vt 0.875000 0.750000
vn -0.7614 -0.0200 -0.6480
vn -0.6479 -0.0100 0.7617
vn 0.7614 0.0200 0.6480
vn 0.6479 0.0100 -0.7617
vn 0.0217 -0.9998 0.0053
vn -0.0217 0.9998 -0.0053
usemtl None
s off
f 18/29/13 17/30/13 19/31/13
f 20/32/14 19/31/14 23/33/14
f 24/34/15 23/33/15 21/35/15
f 22/36/16 21/35/16 17/37/16
f 23/33/17 19/38/17 17/39/17
f 20/40/18 24/34/18 22/36/18
f 18/29/13 19/31/13 20/32/13
f 20/32/14 23/33/14 24/34/14
f 24/34/15 21/35/15 22/36/15
f 22/36/16 17/37/16 18/41/16
f 23/33/17 17/39/17 21/35/17
f 20/40/18 22/36/18 18/42/18
